<?xml version="1.0" encoding="iso-8859-1"?>
<!-- Uploaded to: SVG Repo, www.svgrepo.com, Generator: SVG Repo Mixer Tools -->
<svg fill="#fff" height="800px" width="800px" version="1.1" id="Layer_1" xmlns="http://www.w3.org/2000/svg" xmlns:xlink="http://www.w3.org/1999/xlink" 
	 viewBox="0 0 512 512" xml:space="preserve">
<g>
	<g>
		<path d="M460.8,0H51.2C23.04,0,0,23.04,0,51.2v409.6C0,488.96,23.04,512,51.2,512h409.6c28.16,0,51.2-23.04,51.2-51.2V51.2
			C512,23.04,488.96,0,460.8,0z M85.333,128H128V85.333h51.2V128h42.667v51.2H179.2v42.667H128V179.2H85.333V128z M74.525,426.667
			l79.645-136.533l79.643,136.533H74.525z M426.667,426.667H307.2V307.2h119.467V426.667z M366.933,204.8
			c-32.99,0-59.733-26.743-59.733-59.733s26.743-59.733,59.733-59.733s59.733,26.743,59.733,59.733S399.923,204.8,366.933,204.8z"/>
	</g>
</g>
</svg>